<svg width="18" height="18" viewBox="0 0 18 18" fill="none" xmlns="http://www.w3.org/2000/svg">
<path fill-rule="evenodd" clip-rule="evenodd" d="M17.5333 8.66017C17.5333 9.23727 17.4746 9.81356 17.3592 10.3753C17.2467 10.9237 17.08 11.4621 16.8617 11.9768C16.6483 12.4824 16.3837 12.9696 16.0745 13.424C15.77 13.8754 15.4191 14.299 15.0337 14.6851C14.6474 15.0696 14.2224 15.4195 13.7711 15.7254C13.3152 16.0324 12.8273 16.2966 12.3215 16.5109C11.806 16.7281 11.2664 16.8945 10.7184 17.0069C10.1559 17.1226 9.57755 17.1816 8.99962 17.1816C8.42126 17.1816 7.8429 17.1226 7.28121 17.0069C6.73244 16.8945 6.19283 16.7281 5.67779 16.5109C5.17195 16.2966 4.68357 16.0324 4.22772 15.7254C3.77645 15.4195 3.35143 15.0696 2.96599 14.6851C2.58015 14.299 2.22928 13.8754 1.92427 13.424C1.61675 12.9696 1.35172 12.4824 1.13755 11.9768C0.919183 11.4621 0.752114 10.9237 0.639188 10.3753C0.525025 9.81356 0.466675 9.23727 0.466675 8.66017C0.466675 8.08265 0.524992 7.50512 0.639221 6.94461C0.752147 6.3962 0.919216 5.85696 1.13759 5.34311C1.35175 4.83715 1.61678 4.34951 1.9243 3.89512C2.22931 3.44327 2.58018 3.0205 2.96602 2.63394C3.35146 2.24946 3.77648 1.9004 4.22775 1.59499C4.6836 1.28665 5.17198 1.02247 5.67783 0.807749C6.19286 0.590093 6.73244 0.423266 7.28124 0.311769C7.84294 0.196938 8.4213 0.138672 8.99966 0.138672C9.57758 0.138672 10.1559 0.196938 10.7185 0.311769C11.2664 0.423299 11.806 0.590126 12.3215 0.807749C12.8273 1.02244 13.3153 1.28665 13.7711 1.59499C14.2224 1.9004 14.6475 2.24946 15.0337 2.63394C15.4191 3.0205 15.77 3.44327 16.0746 3.89512C16.3837 4.34951 16.6483 4.83719 16.8617 5.34311C17.08 5.85696 17.2467 6.3962 17.3592 6.94461C17.4746 7.50512 17.5333 8.08265 17.5333 8.66017ZM5.89026 2.07805C3.85805 3.03633 2.34131 4.90621 1.86836 7.15975C2.06048 7.16142 5.0973 7.19971 8.59622 6.27138C7.33492 4.03365 5.98735 2.20749 5.89026 2.07805ZM9.2 7.39195C5.44774 8.51368 1.84711 8.43297 1.71795 8.428C1.71585 8.50621 1.71211 8.58192 1.71211 8.66017C1.71211 10.5296 2.41839 12.2339 3.57929 13.5226C3.57678 13.5188 5.57108 9.98581 9.50377 8.71593C9.59876 8.68431 9.69546 8.656 9.79128 8.62855C9.60838 8.21498 9.40875 7.80055 9.2 7.39195ZM13.8124 3.19859C12.5293 2.06889 10.8447 1.38363 8.9996 1.38363C8.40748 1.38363 7.83286 1.45521 7.28242 1.58752C7.39157 1.734 8.76042 3.54729 10.0067 5.83241C12.7565 4.80303 13.7944 3.22521 13.8124 3.19859ZM10.288 9.83437C10.2718 9.83974 10.2556 9.84437 10.2397 9.85018C5.93997 11.347 4.53583 14.3634 4.52064 14.3964C5.75781 15.3571 7.30956 15.9367 8.99965 15.9367C10.0088 15.9367 10.9701 15.7315 11.8448 15.36C11.7368 14.7242 11.3135 12.4957 10.288 9.83437ZM13.0719 14.6951C14.7082 13.5925 15.8703 11.8416 16.1945 9.81352C16.0445 9.76526 14.0057 9.12073 11.6535 9.49731C12.6093 12.1204 12.9977 14.2566 13.0719 14.6951ZM10.5676 6.91675C10.7368 7.26378 10.9006 7.61698 11.0518 7.97194C11.1056 8.09928 11.1581 8.22412 11.2093 8.34892C13.7128 8.03435 16.1792 8.56361 16.2846 8.58522C16.2679 6.86015 15.65 5.27693 14.6275 4.03743C14.6137 4.05694 13.4449 5.74336 10.5676 6.91675Z" fill="white"/>
</svg>
