<svg width="18" height="18" viewBox="0 0 18 18" fill="none" xmlns="http://www.w3.org/2000/svg">
<path fill-rule="evenodd" clip-rule="evenodd" d="M9.00081 0.138672C6.68327 0.138672 6.39243 0.148805 5.48219 0.190228C4.57374 0.231828 3.95364 0.375652 3.41106 0.586677C2.84981 0.804634 2.37372 1.09619 1.8994 1.57069C1.42473 2.045 1.13317 2.5211 0.914502 3.08217C0.702944 3.62493 0.558942 4.2452 0.518053 5.1533C0.477342 6.06353 0.466675 6.35456 0.466675 8.67209C0.466675 10.9896 0.476986 11.2796 0.518231 12.1898C0.560009 13.0983 0.703833 13.7184 0.914679 14.261C1.13282 14.8222 1.42437 15.2983 1.89887 15.7726C2.37301 16.2473 2.8491 16.5396 3.40999 16.7575C3.95293 16.9685 4.57321 17.1124 5.48148 17.154C6.39171 17.1954 6.68238 17.2055 8.99974 17.2055C11.3175 17.2055 11.6074 17.1954 12.5176 17.154C13.4261 17.1124 14.0469 16.9685 14.5898 16.7575C15.1509 16.5396 15.6263 16.2473 16.1004 15.7726C16.5751 15.2983 16.8667 14.8222 17.0853 14.2611C17.2951 13.7184 17.4391 13.0981 17.4818 12.19C17.5227 11.2798 17.5333 10.9896 17.5333 8.67209C17.5333 6.35456 17.5227 6.06371 17.4818 5.15348C17.4391 4.24503 17.2951 3.62493 17.0853 3.08235C16.8667 2.5211 16.5751 2.045 16.1004 1.57069C15.6258 1.09602 15.1511 0.804457 14.5893 0.586677C14.0453 0.375652 13.4249 0.231828 12.5164 0.190228C11.6062 0.148805 11.3164 0.138672 8.99814 0.138672H9.00081ZM8.23525 1.67644C8.46245 1.67609 8.71597 1.67644 9.00077 1.67644C11.2792 1.67644 11.5492 1.68462 12.449 1.72551C13.281 1.76355 13.7326 1.90258 14.0334 2.01938C14.4316 2.17405 14.7155 2.35894 15.014 2.65761C15.3127 2.95628 15.4976 3.24072 15.6526 3.63895C15.7694 3.9394 15.9086 4.39096 15.9464 5.22297C15.9873 6.12253 15.9962 6.39276 15.9962 8.67012C15.9962 10.9475 15.9873 11.2177 15.9464 12.1173C15.9084 12.9493 15.7694 13.4008 15.6526 13.7013C15.4979 14.0995 15.3127 14.3831 15.014 14.6816C14.7153 14.9802 14.4318 15.1651 14.0334 15.3198C13.7329 15.4371 13.281 15.5758 12.449 15.6138C11.5494 15.6547 11.2792 15.6636 9.00077 15.6636C6.72217 15.6636 6.45212 15.6547 5.55256 15.6138C4.72055 15.5754 4.26899 15.4364 3.96801 15.3196C3.56978 15.1649 3.28533 14.98 2.98666 14.6814C2.68799 14.3827 2.5031 14.099 2.34808 13.7006C2.23128 13.4001 2.09208 12.9486 2.05421 12.1166C2.01332 11.217 2.00514 10.9468 2.00514 8.66798C2.00514 6.3892 2.01332 6.1204 2.05421 5.22083C2.09226 4.38883 2.23128 3.93727 2.34808 3.63646C2.50275 3.23824 2.68799 2.95379 2.98666 2.65512C3.28533 2.35645 3.56978 2.17156 3.96801 2.01653C4.26881 1.8992 4.72055 1.76053 5.55256 1.72231C6.33977 1.68675 6.64484 1.67609 8.23525 1.67431V1.67644ZM13.5558 3.09335C12.9905 3.09335 12.5318 3.55149 12.5318 4.117C12.5318 4.68234 12.9905 5.14101 13.5558 5.14101C14.1212 5.14101 14.5799 4.68234 14.5799 4.117C14.5799 3.55166 14.1212 3.09335 13.5558 3.09335ZM9.00082 4.2898C6.58071 4.2898 4.61855 6.25196 4.61855 8.67207C4.61855 11.0922 6.58071 13.0534 9.00082 13.0534C11.4209 13.0534 13.3824 11.0922 13.3824 8.67207C13.3824 6.25196 11.4209 4.2898 9.00082 4.2898ZM9.00079 5.8276C10.5717 5.8276 11.8453 7.10103 11.8453 8.67207C11.8453 10.2429 10.5717 11.5165 9.00079 11.5165C7.42975 11.5165 6.15632 10.2429 6.15632 8.67207C6.15632 7.10103 7.42975 5.8276 9.00079 5.8276Z" fill="white"/>
</svg>
